<svg width="20" height="21" viewBox="0 0 20 21" fill="none" xmlns="http://www.w3.org/2000/svg">
<path d="M17.3913 2.34511C17.6219 2.34511 17.8431 2.43462 18.0062 2.59393C18.1693 2.75324 18.2609 2.96931 18.2609 3.19461V17.6361C18.2609 17.8614 18.1693 18.0775 18.0062 18.2368C17.8431 18.3961 17.6219 18.4856 17.3913 18.4856H2.6087C2.37807 18.4856 2.1569 18.3961 1.99382 18.2368C1.83074 18.0775 1.73913 17.8614 1.73913 17.6361V3.19461C1.73913 2.96931 1.83074 2.75324 1.99382 2.59393C2.1569 2.43462 2.37807 2.34511 2.6087 2.34511H17.3913ZM17.3913 0.646118H2.6087C1.91683 0.646118 1.25329 0.91462 0.764069 1.39256C0.274844 1.87049 0 2.51871 0 3.19461L0 17.6361C0 18.312 0.274844 18.9602 0.764069 19.4381C1.25329 19.9161 1.91683 20.1846 2.6087 20.1846H17.3913C18.0832 20.1846 18.7467 19.9161 19.2359 19.4381C19.7252 18.9602 20 18.312 20 17.6361V3.19461C20 2.51871 19.7252 1.87049 19.2359 1.39256C18.7467 0.91462 18.0832 0.646118 17.3913 0.646118V0.646118Z" fill="white" fill-opacity="0.8"/>
</svg>
