<svg width="24" height="21" viewBox="0 0 24 21" fill="none" xmlns="http://www.w3.org/2000/svg">
<path d="M6.68552 7.00886L4.09018 9.40445L11.2251 16.022L24 4.18853L21.4047 1.78445L11.2251 11.2139L6.68552 7.00886Z" fill="white" fill-opacity="0.8"/>
<path d="M19.2587 17.6361C19.2587 17.8614 19.1621 18.0775 18.9901 18.2368C18.8181 18.3961 18.5848 18.4856 18.3416 18.4856H2.75124C2.50802 18.4856 2.27475 18.3961 2.10277 18.2368C1.93078 18.0775 1.83416 17.8614 1.83416 17.6361V3.19461C1.83416 2.96931 1.93078 2.75324 2.10277 2.59393C2.27475 2.43462 2.50802 2.34511 2.75124 2.34511H18.2591L19.7081 0.994412C19.2932 0.769771 18.8221 0.649689 18.3416 0.646118H2.75124C2.02157 0.646118 1.32178 0.91462 0.80582 1.39256C0.289862 1.87049 0 2.51871 0 3.19461V17.6361C0 18.312 0.289862 18.9602 0.80582 19.4381C1.32178 19.9161 2.02157 20.1846 2.75124 20.1846H18.3416C19.0713 20.1846 19.7711 19.9161 20.287 19.4381C20.803 18.9602 21.0929 18.312 21.0929 17.6361V9.28552L19.2587 10.9845V17.6361Z" fill="white" fill-opacity="0.8"/>
</svg>
