<svg width="22" height="22" viewBox="0 0 22 22" fill="none" xmlns="http://www.w3.org/2000/svg">
<path d="M11 3.81572C12.4794 3.81572 13.9256 4.24429 15.1557 5.04724C16.3857 5.85018 17.3445 6.99144 17.9106 8.32669C18.4768 9.66194 18.6249 11.1312 18.3363 12.5487C18.0477 13.9662 17.3353 15.2682 16.2892 16.2902C15.2431 17.3122 13.9103 18.0081 12.4593 18.2901C11.0083 18.572 9.50432 18.4273 8.13753 17.8742C6.77074 17.3212 5.60252 16.3846 4.78061 15.1829C3.9587 13.9812 3.52 12.5684 3.52 11.1231C3.52233 9.18576 4.31115 7.32842 5.71342 5.95852C7.11568 4.58861 9.0169 3.818 11 3.81572V3.81572ZM11 0.376953C8.82441 0.376953 6.69767 1.0072 4.88873 2.18801C3.07979 3.36881 1.66989 5.04713 0.83733 7.01073C0.00476611 8.97433 -0.213071 11.135 0.211367 13.2196C0.635804 15.3041 1.68345 17.2189 3.22183 18.7218C4.76021 20.2247 6.72022 21.2481 8.85401 21.6628C10.9878 22.0774 13.1995 21.8646 15.2095 21.0513C17.2195 20.2379 18.9375 18.8605 20.1462 17.0933C21.3549 15.3262 22 13.2485 22 11.1231C22 8.27305 20.8411 5.53972 18.7782 3.52443C16.7153 1.50913 13.9174 0.376953 11 0.376953V0.376953Z" fill="white" fill-opacity="0.8"/>
</svg>
