<svg width="20" height="22" viewBox="0 0 20 22" fill="none" xmlns="http://www.w3.org/2000/svg">
<path opacity="0.3" d="M10 19.9153C7.34784 19.9153 4.8043 18.8861 2.92893 17.054C1.05357 15.2219 0 12.7371 0 10.1461L0 12.1C0 14.6909 1.05357 17.1758 2.92893 19.0079C4.8043 20.8399 7.34784 21.8692 10 21.8692C12.6522 21.8692 15.1957 20.8399 17.0711 19.0079C18.9464 17.1758 20 14.6909 20 12.1V10.1461C20 12.7371 18.9464 15.2219 17.0711 17.054C15.1957 18.8861 12.6522 19.9153 10 19.9153Z" fill="#ABABAB"/>
<path d="M10 19.9154C15.5228 19.9154 20 15.5416 20 10.1462C20 4.75079 15.5228 0.376953 10 0.376953C4.47715 0.376953 0 4.75079 0 10.1462C0 15.5416 4.47715 19.9154 10 19.9154Z" fill="white"/>
<path d="M10 12.1C11.1046 12.1 12 11.2252 12 10.1461C12 9.06703 11.1046 8.19226 10 8.19226C8.89543 8.19226 8 9.06703 8 10.1461C8 11.2252 8.89543 12.1 10 12.1Z" fill="#ABABAB"/>
</svg>
